<?xml version="1.0" standalone="no"?><!DOCTYPE svg PUBLIC "-//W3C//DTD SVG 1.1//EN" "http://www.w3.org/Graphics/SVG/1.1/DTD/svg11.dtd"><svg t="1751615236473" class="icon" viewBox="0 0 1024 1024" version="1.1" xmlns="http://www.w3.org/2000/svg" p-id="29965" xmlns:xlink="http://www.w3.org/1999/xlink" width="200" height="200"><path d="M393.685333 895.018667c-21.418667-1.962667-42.624-5.930667-63.317333-11.904a289.834667 289.834667 0 0 1-94.165333-48.341334 394.794667 394.794667 0 0 1-47.104-47.104c-38.101333-47.957333-57.472-100.138667-59.392-159.914666a266.581333 266.581333 0 0 1 10.496-83.2c2.133333-7.338667 2.261333-8.192 1.834666-16.981334a133.504 133.504 0 0 1 3.2-35.712c1.92-7.808 7.338667-19.498667 10.837334-23.722666l2.176-2.56-0.298667 13.866666c-0.384 19.925333-0.341333 19.925333 5.973333 8.789334a268.373333 268.373333 0 0 1 55.04-68.778667c6.186667-5.632 11.818667-10.837333 12.373334-11.52 0.64-0.64 2.901333-5.674667 5.12-11.136 6.613333-16.469333 12.544-25.472 18.986666-28.757333 5.546667-2.858667 10.666667-1.365333 11.861334 3.328a27.392 27.392 0 0 1-0.213334 6.954666 23.253333 23.253333 0 0 0-0.426666 5.12c0.170667 0 5.034667-2.56 10.837333-5.589333 20.778667-11.093333 35.669333-17.493333 66.986667-28.544 10.325333-3.669333 20.053333-7.210667 21.632-7.850667 8.832-3.712 13.610667-16.213333 12.714666-33.28a46.250667 46.250667 0 0 0-3.242666-16.128 132.693333 132.693333 0 0 0-3.925334-10.154666c-1.578667-3.114667-1.365333-3.669333 1.237334-2.944 7.466667 2.133333 16.384 9.386667 21.973333 17.749333 3.242667 4.949333 8.746667 16.725333 8.746667 18.944 0 1.792 1.152 0.981333 3.626666-2.688 9.813333-14.506667 9.898667-31.018667 0.128-47.573333a77.738667 77.738667 0 0 0-20.608-20.394667c-8.874667-5.418667-14.208-7.04-23.68-6.954667-7.338667 0.085333-8.021333-0.042667-10.154666-1.792-2.645333-2.261333-4.138667-7.04-3.498667-11.008 0.810667-4.522667 8.533333-19.2 13.781333-26.197333 6.272-8.32 20.352-21.888 29.354667-28.288 29.184-20.736 65.792-33.28 108.330667-37.12 10.24-0.981333 10.624-1.024 12.714666-3.285333 2.005333-2.133333 2.645333-2.346667 7.04-2.346667 4.266667 0 5.461333 0.384 10.24 3.114667 4.992 2.901333 5.546667 3.072 7.637334 2.133333a20.906667 20.906667 0 0 1 8.96-0.597333c5.376 0.341333 6.997333 0.256 8.405333-0.768 2.474667-1.706667 5.504-1.493333 9.941333 0.768 2.133333 1.066667 8.448 2.986667 13.994667 4.181333 26.197333 5.802667 47.274667 13.952 67.285333 26.069333 3.541333 2.133333 6.613333 3.925333 6.741334 3.925334 0.298667 0-0.085333-2.816-1.024-7.893334l-0.426667-2.133333 4.906667 2.858667c6.4 3.84 12.16 9.813333 15.317333 15.872 2.176 4.266667 2.688 4.821333 3.84 4.053333 0.938667-0.512 2.048-0.597333 3.541333-0.085333 1.706667 0.597333 2.986667 2.389333 6.4 9.386666 2.346667 4.778667 4.522667 8.874667 4.778667 9.130667 0.341333 0.341333 2.688-1.834667 5.376-4.693333a40.106667 40.106667 0 0 1 17.578667-11.946667c6.4-2.133333 10.24-1.706667 13.098666 1.536 2.901333 3.2 2.901333 7.338667-0.128 13.653333-5.76 12.16-8.32 23.296-7.338666 31.786667l0.554666 4.394667 3.413334-2.432c3.242667-2.261333 3.925333-2.432 9.813333-2.432 6.101333 0 12.8 1.834667 12.8 3.584a26.794667 26.794667 0 0 1-3.626667 5.12c-5.888 7.210667-7.381333 11.264-7.253333 19.968 0.085333 8.064 0.426667 9.856 5.632 27.776 1.877333 6.570667 4.096 15.146667 4.864 19.029333a27.818667 27.818667 0 0 0 1.92 7.125333c1.28 0 10.026667-7.253333 15.274667-12.629333 3.2-3.2 5.973333-5.802667 6.272-5.802667 1.024 0 2.901333 6.058667 3.712 12.032 0.981333 7.04 0.256 13.824-2.304 22.144-1.536 4.992-1.578667 5.418667-0.426667 7.893334a20.48 20.48 0 0 1 0.938667 14.208c-2.261333 9.642667-6.4 16.298667-17.066667 27.434666l-5.504 5.76-0.896 7.68a155.733333 155.733333 0 0 1-2.432 14.165334 28.8 28.8 0 0 0-1.109333 6.826666c0.213333 0.213333 0.938667-0.085333 1.578666-0.597333 1.706667-1.408 6.869333-0.64 12.074667 1.834667 10.666667 5.077333 31.104 23.722667 39.082667 35.712l4.309333 6.4 6.912 1.749333c28.245333 7.168 50.261333 27.733333 62.421333 58.325333 3.84 9.6 6.528 21.845333 8.448 37.973334 0.597333 4.906667 1.92 9.258667 5.76 18.816 2.730667 6.826667 5.376 14.293333 5.845334 16.64a35.754667 35.754667 0 0 1-1.92 19.968 105.130667 105.130667 0 0 0-3.584 10.24c-2.944 10.368-7.68 17.066667-15.573334 22.186666a39.893333 39.893333 0 0 1-8.874666 4.181334c-4.394667 1.152-19.2 7.978667-19.2 8.832 0 0.256 1.024 0.725333 2.346666 0.981333 7.04 1.408 16.256 8.064 18.602667 13.44 0.469333 1.109333 2.346667 3.925333 4.138667 6.272 6.826667 8.96 8.448 17.194667 5.973333 30.165333l-1.28 6.826667 2.005333 2.432c7.04 8.661333 13.098667 19.882667 15.317334 28.544 3.114667 12.117333 3.072 23.893333-0.170667 41.685333l-1.408 7.509334 2.56 3.712c4.906667 7.125333 5.888 13.952 3.413333 23.594666-6.229333 24.064-24.533333 41.898667-50.048 48.64l-4.992 1.365334v6.656c0 5.12-0.384 7.466667-1.578666 10.112a21.12 21.12 0 0 1-10.24 10.24c-7.168 3.157333-17.834667-0.256-23.082667-7.381334-2.645333-3.541333-2.858667-3.626667-6.656-3.626666a26.154667 26.154667 0 0 1-7.253333-1.194667c-7.936-2.773333-11.562667-8.192-11.776-17.493333l-0.128-5.376-4.992-2.986667a76.288 76.288 0 0 1-18.005334-14.634667l-4.778666-5.248 2.474666 4.949334c10.752 21.333333-1.450667 44.458667-27.050666 51.285333-5.248 1.450667-9.258667 1.706667-31.744 2.261333-34.688 0.853333-288.512 0.682667-299.648-0.170666h0.042666z m432.085334-12.8c3.242667-2.816 4.565333-9.984 2.56-13.866667-1.834667-3.669333-4.48-4.821333-12.288-5.461333-8.874667-0.64-11.306667-1.92-11.306667-5.674667 0-4.906667 0.768-5.12 20.48-5.376 19.072-0.256 24.832-1.194667 33.194667-5.461333 7.338667-3.712 16.682667-15.274667 17.536-21.76l0.426666-3.072-5.290666 1.493333c-19.968 5.589333-46.933333 6.613333-66.602667 2.56-21.290667-4.522667-40.96-16.64-47.914667-29.653333l-1.706666-3.242667-0.981334 2.261333a40.32 40.32 0 0 0-0.938666 10.666667c-0.085333 7.893333 0.085333 8.789333 2.304 13.44 4.693333 9.770667 14.72 19.2 26.965333 25.386667 6.4 3.2 6.570667 3.328 6.144 5.674666l-1.365333 7.765334c-1.152 6.784-0.512 10.410667 2.602666 13.952a16.512 16.512 0 0 0 12.928 5.632c2.986667 0 4.864 0.426667 6.144 1.408 6.570667 5.12 13.482667 6.485333 17.109334 3.285333z m-160.085334-5.888c14.848-2.133333 19.626667-2.218667 27.605334-0.469334 16.341333 3.626667 33.152 0.725333 40.533333-6.954666 4.864-5.077333 6.357333-13.141333 3.328-18.090667-3.712-6.101333-13.44-10.24-24.192-10.24-7.466667 0-11.349333 1.066667-24.448 6.656a120.746667 120.746667 0 0 1-12.032 4.608c-5.546667 1.109333-8.490667-2.005333-8.490667-8.96 0-7.381333 2.090667-9.813333 17.92-21.077333 13.653333-9.6 21.76-20.693333 23.808-32.298667 0.853333-5.418667-0.085333-12.885333-1.962666-14.677333a50.602667 50.602667 0 0 0-9.429334-3.413334c-26.581333-7.808-38.784-17.92-50.346666-41.813333a175.488 175.488 0 0 1-11.178667-29.098667c-1.365333-4.736-2.986667-9.386667-4.864-13.952-8.618667-19.029333-29.653333-36.224-53.845333-44.032-10.24-3.328-16.725333-4.48-33.024-5.888a470.912 470.912 0 0 1-18.048-1.834666l-3.84-0.554667 5.376-2.773333c6.570667-3.328 11.392-4.864 18.432-5.888 10.026667-1.536 16.853333-1.792 24.192-0.981334 29.482667 3.328 51.754667 18.474667 67.413333 45.994667 5.845333 10.24 10.026667 20.693333 14.08 35.285333 4.693333 16.810667 8.96 25.301333 17.109333 33.877334 13.098667 13.952 30.72 20.181333 56.576 20.181333 5.717333 0 12.8-0.426667 15.786667-0.810667 12.074667-1.706667 24.618667-5.973333 33.877333-11.605333 10.197333-6.101333 19.626667-17.365333 22.698667-26.88 0.938667-2.858667 2.048-5.290667 2.517333-5.290667 0.426667 0 3.328 0.597333 6.4 1.28 5.248 1.28 5.973333 1.28 12.373334 0 10.154667-1.92 12.842667-1.706667 15.445333 1.024 3.925333 4.181333 8.789333 4.949333 14.421333 2.261334a17.749333 17.749333 0 0 0 5.674667-4.821334c1.877333-2.56 2.261333-3.754667 2.048-6.613333-0.213333-3.413333-0.298667-3.498667-6.186667-7.338667a42.922667 42.922667 0 0 1-5.973333-4.266666 13.738667 13.738667 0 0 1 3.285333-2.56c2.432-1.578667 3.968-2.005333 6.144-1.834667 3.285333 0.298667 3.328-0.128 0.128-6.314667a26.624 26.624 0 0 0-12.842666-12.629333c-10.794667-5.248-23.04-5.248-36.650667 0-8.192 3.2-9.386667 3.2-15.018667 0.768a51.584 51.584 0 0 0-25.130666-3.84c-12.544 0.768-20.821333-0.554667-23.978667-3.797333l-2.346667-2.346667 10.069334-0.896c15.701333-1.450667 20.224-2.816 34.133333-10.496 8.533333-4.693333 13.653333-5.973333 26.538667-6.741333 18.56-1.066667 27.349333-4.224 32.298666-11.605334 1.792-2.602667 2.688-3.413333 3.456-2.858666a20.352 20.352 0 0 0 24.917334-15.573334c0.512-2.688 0.384-2.858667-7.637334-9.898666a81.066667 81.066667 0 0 1-8.106666-7.722667c0-0.298667 1.194667-1.578667 2.688-2.944 4.565333-4.010667 7.850667-3.328 17.066666 3.456 1.621333 1.194667 1.706667 1.194667 1.706667-0.170667 0-3.029333-1.877333-7.978667-7.253333-19.498666-6.4-13.44-6.869333-15.061333-8.106667-25.728-3.84-32.938667-21.589333-60.544-49.322667-76.629334a66.048 66.048 0 0 0-6.826666-3.669333 20.864 20.864 0 0 0-2.944 5.077333 39.338667 39.338667 0 0 1-5.376 8.021334c-2.389333 2.517333-3.413333 3.072-5.802667 3.072-3.413333 0-5.76-1.792-5.76-4.266667 0-0.981333 1.024-3.925333 2.304-6.613333 3.84-8.277333 4.949333-14.08 3.84-20.650667-2.56-15.274667-16.981333-32.512-34.944-41.898667-7.04-3.669333-7.850667-3.541333-8.277333 0.981334-0.469333 5.205333 0.64 15.701333 2.432 22.741333 0.853333 3.242667 3.754667 11.050667 6.485333 17.28 6.954667 16 9.088 23.04 9.130667 30.08a23.424 23.424 0 0 1-1.28 8.661333 26.538667 26.538667 0 0 1-9.002667 10.24c-2.645333 1.365333-5.589333 1.450667-5.034667 0.128 4.053333-9.258667 5.418667-13.781333 5.717334-19.498666 0.469333-7.978667-0.64-11.648-7.466667-25.685334-6.826667-14.08-8.746667-21.76-8.362667-33.365333l0.341334-8.106667-1.877334 3.669334c-2.474667 4.48-5.12 8.832-7.936 13.098666-9.813333 15.104-12.928 23.210667-12.928 33.408 0 9.386667 3.669333 22.485333 8.917334 32 1.024 1.834667 1.706667 3.498667 1.536 3.712a18.218667 18.218667 0 0 1-4.650667-3.712c-4.266667-4.010667-10.410667-14.464-10.410667-17.706666 0-2.176-1.408-1.749333-7.68 2.218666-11.648 7.509333-20.053333 15.146667-31.146666 28.330667-16.213333 19.242667-38.272 33.578667-65.28 42.496-6.357333 2.048-27.050667 7.594667-45.994667 12.330667-51.797333 12.842667-69.973333 19.242667-93.952 33.066666-47.445333 27.306667-72.277333 64-77.184 114.048-1.706667 17.92 0.725333 45.098667 5.888 64.554667 0.810667 2.901333-4.181333-3.584-7.253333-9.6-5.546667-10.666667-9.130667-23.808-10.88-40.32-1.621333-14.762667 0.170667-44.16 3.584-59.904l0.469333-2.218667-11.434667 0.469334c-28.330667 1.194667-51.754667 9.216-70.912 24.32a78.421333 78.421333 0 0 0-8.149333 7.210666l-1.92 2.304 0.469333-2.261333c0.896-4.053333 5.461333-12.928 9.130667-17.749333 7.68-10.154667 23.125333-19.84 39.253333-24.661334 4.224-1.28 17.152-4.437333 28.8-7.04 11.648-2.56 21.674667-4.864 22.4-5.077333a26.965333 26.965333 0 0 0 4.906667-7.210667c2.048-3.754667 5.76-9.685333 8.234667-13.098666a39.808 39.808 0 0 0 4.181333-6.613334 123.306667 123.306667 0 0 0-12.501333 1.621334c-6.741333 1.024-21.589333 3.114667-32.981334 4.608-22.997333 3.072-35.925333 5.461333-47.957333 8.917333-37.12 10.709333-58.538667 31.445333-69.717333 67.498667l-2.901334 9.344 1.536 4.394666c2.389333 7.125333 10.538667 23.04 16 31.061334 21.205333 31.701333 54.485333 57.386667 95.36 73.557333 9.258667 3.669333 10.368 4.309333 15.146667 9.045333a38.869333 38.869333 0 0 1 4.949333 5.333334c-0.597333 0.597333-24.149333-5.546667-34.304-8.96a216.149333 216.149333 0 0 1-67.626666-36.693334 92.714667 92.714667 0 0 0-14.165334-9.045333 171.136 171.136 0 0 1-44.885333-33.066667 95.146667 95.146667 0 0 1-15.573333-21.504l-3.285334-6.144 4.693334 4.352c10.24 9.386667 25.045333 19.029333 32.384 21.077334 1.664 0.426667 1.621333 0.128-1.408-5.162667a179.584 179.584 0 0 1-11.648-25.173333 51.242667 51.242667 0 0 0-9.002667-15.786667 354.688 354.688 0 0 1-53.589333-95.616l-3.712-10.325333-0.64 3.413333a174.506667 174.506667 0 0 0-0.810667 17.194667l-0.128 13.824 4.48 12.330666 22.698667 61.269334c0.426667 1.152 0.64 2.133333 0.512 2.133333-0.170667 0-2.944-3.370667-6.101334-7.381333-7.338667-9.216-15.488-21.418667-16.938666-25.386667l-1.194667-2.986667 0.426667 2.688c3.242667 17.237333 8.234667 34.133333 14.933333 50.346667a257.536 257.536 0 0 0 87.04 108.970667c36.565333 25.685333 86.186667 43.733333 130.005333 47.274666 4.266667 0.341333 66.645333 0.682667 138.666667 0.725334 112.554667 0.085333 132.138667-0.042667 139.093333-1.066667z m53.888-213.333334c-8.490667-1.706667-16.64-4.693333-24.32-8.789333-14.72-8.661333-25.173333-23.765333-26.197333-37.888-0.341333-4.949333-0.341333-4.992 0.725333-2.346667 6.656 16.938667 19.498667 30.549333 37.205334 39.466667 8.106667 4.096 12.586667 5.76 22.058666 8.192l8.448 2.176-6.912-0.042667c-3.669333 0-7.338667-0.256-11.008-0.725333z m84.181334-76.757333c-7.68-1.834667-16.298667-8.746667-18.688-15.018667a23.765333 23.765333 0 0 1 0.64-15.36l1.237333-2.218666 0.554667 3.072c1.408 7.68 6.826667 14.250667 14.592 17.706666 2.304 1.024 8.192 2.56 13.141333 3.413334 7.296 1.28 12.032 2.688 14.848 4.394666a36.053333 36.053333 0 0 0 0.554667-7.68c0.170667-7.552 0.128-7.808-1.109334-5.930666-2.645333 3.882667-6.4 6.912-8.661333 6.912-3.072 0-16.426667-4.864-20.096-7.296-4.608-2.986667-6.016-5.973333-6.016-12.245334 0-4.48-0.298667-5.632-1.706667-7.168l-1.749333-1.877333 3.626667-3.328c6.101333-5.504 9.770667-6.912 18.261333-6.912 8.192 0 11.733333 1.28 17.493333 6.186667 8.192 7.04 10.922667 24.234667 6.144 38.528l-1.706666 5.248-14.250667 0.128c-5.717333 0.170667-11.434667 0-17.066667-0.554667z m9.301333-27.178667c2.688-1.365333 4.266667-4.394667 4.224-7.936-0.085333-2.218667-0.725333-3.370667-2.858667-5.333333-4.48-4.138667-10.496-2.986667-13.141333 2.56-3.413333 7.253333 4.48 14.506667 11.776 10.752v-0.042667z m-65.109333 274.773334a66.730667 66.730667 0 0 1-8.192-19.2c-2.56-11.392-0.256-29.653333 4.864-38.485334l1.92-3.413333-6.4 0.512c-3.370667 0.256-6.741333 0.426667-10.112 0.512h-3.669334v5.632c0 11.349333-5.248 25.173333-13.525333 35.456l-4.266667 5.376 7.808 0.554667c4.266667 0.298667 10.112 1.194667 12.970667 2.090666 5.76 1.706667 12.928 6.144 16.938667 10.325334 3.2 3.370667 3.754667 3.584 1.621333 0.597333z m105.301333-26.88a25.813333 25.813333 0 0 0 13.354667-12.032c2.730667-5.589333 5.717333-20.394667 6.272-31.232 0.341333-6.869333 0.128-10.24-0.853334-14.933334-1.28-5.973333-5.888-16.64-8.746666-20.224l-1.450667-1.834666-3.754667 2.688c-8.32 5.973333-14.933333 6.912-23.381333 3.2a29.44 29.44 0 0 0-12.714667-2.474667l-7.765333-0.341333-2.56 4.48c-7.296 13.141333-18.688 23.466667-32.426667 29.525333l-5.888 2.688-0.554666 4.096c-2.133333 16.768 9.088 28.373333 33.706666 34.645333 12.8 3.328 17.109333 3.797333 30.506667 3.584 10.197333-0.170667 12.544-0.426667 16.256-1.92v0.042667z m-617.813333-119.04c7.082667-34.133333 32.938667-56.917333 76.8-67.84 10.965333-2.688 29.013333-6.272 61.866666-12.202667 43.050667-7.765333 56.32-11.904 72.192-22.485333l9.6-6.4-40.533333-0.213334c-49.621333-0.298667-56.106667 0.298667-75.477333 6.698667-12.245333 4.096-24.277333 9.472-57.514667 25.856-15.786667 7.808-28.885333 14.08-29.013333 13.866667-0.341333-0.298667 11.946667-11.008 18.218666-15.914667 20.48-16.213333 54.144-34.858667 75.648-42.069333 36.693333-12.288 64.938667-14.634667 124.458667-10.410667l28.501333 2.048 11.093334-2.773333c10.88-2.730667 22.016-4.821333 43.008-8.234667 3.584-0.512 7.125333-1.152 10.666666-1.92 0.170667-0.170667-0.341333-0.512-1.152-0.853333a48.042667 48.042667 0 0 1-11.648-5.76 31.872 31.872 0 0 1-4.778666-3.498667c0-0.170667 9.898667-0.213333 22.058666-0.085333 22.058667 0.256 22.144 0.256 29.866667-1.834667 48.042667-13.013333 87.466667-48.384 108.544-97.408 4.352-10.24 11.989333-32.128 11.434667-32.725333a19.626667 19.626667 0 0 0-5.717334 2.816c-7.338667 4.565333-23.04 12.288-32.128 15.957333a228.437333 228.437333 0 0 1-70.613333 15.914667l-6.826667 0.512-5.461333 5.12a221.653333 221.653333 0 0 1-74.453333 44.373333c-14.72 5.034667-23.893333 7.082667-71.253334 16.085333-23.424 4.437333-50.048 9.685333-59.136 11.52-66.176 13.952-108.501333 31.36-131.413333 54.058667-7.722667 7.68-11.946667 13.653333-16.469333 23.381333a49.493333 49.493333 0 0 1-8.405334 12.8c-6.4 7.424-11.008 16.213333-13.525333 25.6-2.986667 11.946667-1.621333 29.354667 3.456 44.202667 1.792 5.333333 6.528 16.213333 6.997333 16.213333a25.258667 25.258667 0 0 0 1.152-4.394666z m-26.197334-27.733334l-0.810666-11.733333-8.32-12.501333c-5.12-7.765333-10.112-15.616-14.933334-23.552a643.968 643.968 0 0 1-24.106666-46.464l-1.664-3.84 0.426666 3.072c0.853333 5.802667 4.821333 21.546667 7.594667 30.165333 6.656 20.138667 15.872 39.296 27.52 57.045333 4.992 7.509333 14.506667 20.053333 14.848 19.754667 0-4.010667-0.170667-8.021333-0.512-11.946667h-0.042667z m-0.341333-44.8c-2.432-12.714667-1.28-29.866667 2.773333-39.978666 1.706667-4.309333 5.205333-11.392 5.632-11.392 0.170667 0 1.408 3.029333 2.730667 6.698666 2.432 6.826667 5.76 13.312 6.784 13.226667a21.376 21.376 0 0 0 3.498667-5.034667 148.053333 148.053333 0 0 1 7.808-11.52l4.906666-6.485333-2.986666-1.92c-9.813333-6.144-18.773333-20.352-22.613334-35.712-3.712-15.189333-4.864-38.4-2.773333-57.386667 0.426667-3.242667 0.682667-6.528 0.682667-9.813333-0.554667-0.512-11.178667 12.8-17.834667 22.144-11.178667 15.786667-20.48 32.853333-27.690667 50.816l-3.413333 8.448 3.370667 9.386667a301.226667 301.226667 0 0 0 40.106666 75.221333 40.618667 40.618667 0 0 0-0.938666-6.741333z m47.018667-59.989333c-2.261333-9.301333-3.2-21.504-3.2-43.221333 0-20.906667 0.170667-24.021333 1.792-33.066667 2.133333-11.776 6.101333-25.386667 9.728-33.194667 2.645333-5.717333 10.325333-18.944 10.794666-18.517333-0.512 5.546667-1.152 11.093333-1.92 16.554667-3.456 25.770667-4.181333 35.285333-3.626666 50.176 0.597333 17.066667 3.626667 38.4 5.504 38.4 0.725333 0 0.938667-3.626667 0.853333-15.957334a180.48 180.48 0 0 1 7.68-56.32 283.306667 283.306667 0 0 1 32.341333-70.229333 27.904 27.904 0 0 0 2.56-4.309333c0-0.256-2.005333-0.170667-4.437333 0.170666-29.525333 4.522667-53.461333 24.32-65.450667 54.058667l-2.986666 7.381333 0.341333-5.205333c1.024-15.018667 4.010667-36.096 6.101333-43.050667 0.256-0.768-0.512 0.341333-1.621333 2.389334-8.874667 16.341333-17.28 63.189333-17.237333 96.085333 0 24.106667 4.266667 41.472 12.970666 53.034667 4.096 5.461333 10.752 8.661333 9.813334 4.821333z m40.746666-29.44c6.826667-3.328 16.085333-5.973333 56.704-16.213333 17.749333-4.48 36.394667-9.472 41.472-11.136 18.816-6.101333 35.968-16.469333 50.176-30.208 14.762667-14.208 19.754667-21.76 24.405334-37.162667 2.133333-7.168 2.133333-7.168 3.541333-5.376 5.888 7.808 5.802667 26.581333-0.170667 38.4-0.853333 1.578667-1.237333 2.986667-0.853333 2.986667 1.578667 0 10.069333-6.314667 13.610667-10.112 9.301333-9.941333 13.653333-19.029333 21.12-44.458667 1.066667-4.010667 2.346667-7.936 3.84-11.776 0.682667-0.768 3.413333 5.632 5.12 11.946667 0.853333 3.285333 1.28 7.68 1.28 14.08a58.752 58.752 0 0 1-6.826667 28.074666l-2.773333 5.461334 4.096-2.218667c9.898667-5.290667 27.989333-27.434667 35.712-43.733333 4.565333-8.746667 6.869333-18.474667 6.698666-28.373334 0.085333-13.610667-2.773333-22.528-11.008-34.389333-10.752-15.530667-34.986667-33.578667-56.149333-41.941333a22.229333 22.229333 0 0 1-9.088-7.04c-2.645333-2.944-4.48-5.333333-4.010667-5.333334 0.938667 0 15.104 3.84 24.618667 6.698667 22.570667 6.698667 40.234667 16.64 53.888 30.122667 15.786667 15.616 23.253333 32 23.168 50.773333-0.128 16.512-5.973333 31.573333-18.773333 48.554667a62.378667 62.378667 0 0 0-4.48 6.314666c0 0.64 12.288-4.864 19.968-8.917333 9.685333-5.12 25.344-15.658667 31.36-21.034667 8.362667-7.594667 19.498667-26.24 24.32-40.704 4.650667-13.866667 5.333333-28.757333 2.005333-43.008a88.490667 88.490667 0 0 0-20.010667-35.157333l-4.053333-4.437333h3.925333c2.133333 0 4.053333-0.298667 4.266667-0.682667 0.981333-1.536-1.28-4.821333-4.693333-6.997333-5.973333-3.797333-8.448-4.096-19.413334-2.730667a183.04 183.04 0 0 1-41.472 0 73.173333 73.173333 0 0 1-21.76-6.826667l-3.029333-1.792 27.946667-0.384c21.248-0.298667 29.44-0.682667 34.389333-1.664 7.125333-1.365333 12.117333-3.285333 13.781333-5.333333 0.981333-1.152 0.768-1.621333-1.92-4.437333-8.533333-8.832-24.533333-19.797333-40.618666-27.989334a194.090667 194.090667 0 0 0-89.173334-21.077333c-12.373333 0-27.477333 1.28-34.133333 2.858667l-1.92 0.426666 2.304-2.432c2.986667-3.2 13.056-8.106667 20.48-9.984 13.098667-3.328 31.317333-4.48 49.066667-3.2 24.746667 1.834667 42.496 6.4 66.389333 17.024 5.077333 2.218667 9.856 4.053333 10.666667 3.968 1.92-0.128 4.266667-2.346667 5.461333-5.162666l1.024-2.304 2.389333 5.12a38.4 38.4 0 0 1 2.389334 6.058666c0 1.877333 1.408-0.256 2.304-3.541333a11.093333 11.093333 0 0 1 1.664-3.84c0.768-0.554667 2.773333 3.968 5.290666 11.818667l1.792 5.546666 3.968-3.968c4.693333-4.608 4.864-4.48 5.546667 5.546667l0.426667 6.698667 3.498666-2.218667c1.962667-1.194667 3.754667-1.92 4.010667-1.664 0.256 0.341333 1.237333 2.986667 2.176 5.930667 2.773333 8.618667 6.570667 15.786667 10.922667 20.864a64 64 0 0 1 6.826666 9.813333c1.450667 2.730667 2.986667 4.906667 3.328 4.821333 1.237333-0.384 6.528-9.813333 9.088-16.042666a23.466667 23.466667 0 0 1 2.986667-5.973334c1.066667 0 1.706667 8.533333 1.28 18.133334a64 64 0 0 0 0 9.472 31.018667 31.018667 0 0 0 4.010667-2.688 22.144 22.144 0 0 1 4.266666-2.688c1.621333 0-1.962667 24.021333-4.650666 30.933333-1.024 2.56 1.152 1.28 6.144-3.712 2.773333-2.730667 5.034667-4.565333 5.034666-4.010667 0 1.962667-4.522667 18.773333-6.144 22.912a118.058667 118.058667 0 0 1-4.992 10.368c-3.114667 5.546667-5.632 11.434667-7.594666 17.493334l-0.512 2.133333 3.712-2.56c4.096-2.816 6.101333-3.669333 28.586666-12.501333 19.882667-7.808 31.061333-13.226667 35.584-17.237334a20.138667 20.138667 0 0 0 7.424-14.72v-3.968l-2.176 2.986667c-4.266667 5.802667-14.293333 14.08-23.552 19.541333l-3.072 1.792 2.389334-2.645333c10.197333-11.178667 17.152-26.752 17.194666-38.442667 0-4.224-1.109333-10.368-2.432-13.653333-1.024-2.389333-1.024-2.346667-6.741333 11.605333-6.528 16.128-12.8 29.013333-16.981333 35.242667-6.186667 9.173333-15.445333 17.408-21.034667 18.816-1.92 0.469333-2.048 0.426667-1.365333-0.938667 1.322667-2.432 3.114667-10.282667 3.925333-17.152 0.426667-3.584 0.938667-21.418667 1.194667-39.594666 0.426667-32.384 0.981333-40.96 2.986666-49.621334 0.981333-4.266667 0.981333-4.352-2.304-13.056a188.714667 188.714667 0 0 0-5.376-12.842666c-2.133333-4.266667-6.869333-10.88-7.808-10.88-0.298667 0-2.218667 3.84-4.394666 8.533333l-3.84 8.533333-0.384-7.168c-0.298667-5.76-0.682667-7.68-2.048-9.557333a54.272 54.272 0 0 0-13.952-12.288 161.536 161.536 0 0 0-23.04-11.52c-1.877333-0.554667-1.877333-0.512-1.28 3.584 0.256 2.218667 0.682667 4.949333 0.938666 5.973333 0.426667 1.706667 0.298667 1.792-2.474666 1.28a23.296 23.296 0 0 1-13.013334-7.509333c-1.962667-2.133333-3.754667-3.712-3.968-3.456a30.037333 30.037333 0 0 0 1.92 7.168c1.194667 3.712 2.133333 6.954667 1.92 7.168-0.512 0.512-5.845333-1.536-8.106666-3.2a36.864 36.864 0 0 1-5.973334-7.936 47.104 47.104 0 0 0-7.082666-9.173333c-4.992-4.266667-7.253333-4.778667-31.018667-7.253334a44.544 44.544 0 0 1-14.378667-3.498666c-1.152-0.512-1.066667 0 0.512 3.626666 1.024 2.304 2.133333 5.461333 2.389334 6.912l0.512 2.688-3.328-0.64a54.485333 54.485333 0 0 1-17.066667-6.912c-5.12-3.072-5.418667-3.114667-14.464-3.712-10.496-0.725333-21.034667 0-31.36 2.090667l-5.76 1.408 5.76 0.64c7.68 0.810667 14.421333 2.944 18.474667 5.888 3.285333 2.389333 6.058667 5.12 6.058666 6.144 0 0.256-6.058667 0.64-13.568 0.853333a113.92 113.92 0 0 0-54.442666 13.610667 368.64 368.64 0 0 0-42.453334 27.349333c-3.84 3.328-10.88 12.544-10.88 14.336 0 0.938667 1.450667 1.706667 5.546667 2.858667 31.061333 8.96 50.474667 31.488 54.314667 63.018667 2.773333 22.698667 2.389333 36.736-1.408 51.84-5.888 23.168-20.992 45.568-37.973334 56.064-6.229333 3.882667-19.2 8.874667-23.04 8.917333H368.213333l3.968-4.352c9.258667-10.154667 16-23.04 20.522667-39.466667 2.56-9.088 2.773333-18.773333 0.64-25.984-1.536-5.205333-2.005333-5.248-3.498667-0.512-2.090667 5.973333-4.821333 11.733333-8.192 17.152-1.578667 2.432-12.373333 13.781333-24.490666 25.898667-27.562667 27.392-39.125333 41.6-49.92 61.397333-8.618667 16.341333-14.464 34.005333-17.28 52.309334-1.578667 12.672-1.152 34.133333 0.682666 34.133333 0.341333 0 2.986667-1.152 6.016-2.688z m365.568-115.157333a204.074667 204.074667 0 0 0 48.298667-22.485334c9.386667-6.186667 21.76-18.389333 28.8-28.288 6.826667-9.728 16.810667-30.805333 15.274667-32.384-0.853333-0.810667-14.421333 4.266667-18.944 7.168-4.906667 3.157333-7.850667 5.546667-22.357334 17.962667-14.250667 12.245333-17.066667 14.336-24.405333 17.834667-7.594667 3.669333-12.16 4.010667-16.981333 1.28a10.538667 10.538667 0 0 1-3.157334-2.176c0-0.256 1.408-1.28 3.072-2.304 3.328-2.090667 9.728-8.277333 9.130667-8.874667-3.456 1.408-6.784 3.072-9.941333 5.034667-25.984 14.848-39.594667 27.221333-41.813334 38.144-0.64 3.157333 0.128 3.2 8.405334 0.512 20.053333-6.528 43.861333-19.072 73.813333-38.826667 8.704-5.674667 13.013333-8.021333 16.896-9.130667a21.248 21.248 0 0 1 5.546667-1.152c0.981333 0.938667-8.618667 11.946667-16.384 18.901334-19.456 17.365333-37.12 29.056-57.514667 38.058666-5.12 2.218667-8.96 4.096-8.490667 4.096 0.426667 0 5.290667-1.493333 10.752-3.328z m28.458667-121.173334c8.192-12.330667 10.752-21.546667 11.861333-42.538666 1.024-19.797333 3.114667-31.616 8.490667-47.018667a34.133333 34.133333 0 0 0 1.962667-6.912c-0.810667-0.853333-8.533333 9.301333-11.178667 14.677333-7.68 15.616-13.696 43.008-16.554667 75.52l-1.152 13.610667c0 1.322667 3.2-2.261333 6.570667-7.381333v0.042666z" p-id="29966" fill="#d4237a"></path></svg>