<?xml version="1.0" standalone="no"?><!DOCTYPE svg PUBLIC "-//W3C//DTD SVG 1.1//EN" "http://www.w3.org/Graphics/SVG/1.1/DTD/svg11.dtd"><svg t="1751614714695" class="icon" viewBox="0 0 1448 1024" version="1.1" xmlns="http://www.w3.org/2000/svg" p-id="13547" xmlns:xlink="http://www.w3.org/1999/xlink" width="282.8125" height="200"><path d="M830.69204102 777.369332l202.7441114 56.71889982-121.01084855-238.24035081 183.64319921-225.03735499-274.93274359 65.81173664-134.8132156-222.91560675-54.13888506 278.11212959-273.86863313 93.41258714 201.68388457 87.04345884-136.93108022 92.35106576-162.41277156-68.99759534s-89.1665016-40.33651801-89.1665016-110.39563472 91.28954437-94.47281398 91.28954436-94.47281399l270.68406899-84.21100911 45.29330505-263.25083022s21.23042765-104.73720795 93.41258714-104.73720794 101.90475821 83.50548575 138.70589219 138.70589219l75.01202014 125.96504652 268.91572969-70.76852369s220.78997491-46.7056463 89.16650162 141.52928016l-191.07255435 223.62630826 113.22290631 220.7899749s87.75157129 179.7531117-118.88910033 155.68505617l-195.31475626-62.27635263-21.23042765-134.46110119z" fill="#E16A1A" p-id="13548"></path></svg>